<?xml version="1.0" encoding="utf-8"?>
<!-- Generator: Adobe Illustrator 16.0.0, SVG Export Plug-In . SVG Version: 6.00 Build 0)  -->
<!DOCTYPE svg PUBLIC "-//W3C//DTD SVG 1.1//EN" "http://www.w3.org/Graphics/SVG/1.1/DTD/svg11.dtd">
<svg version="1.1" id="Layer_1" xmlns="http://www.w3.org/2000/svg" xmlns:xlink="http://www.w3.org/1999/xlink" x="0px" y="0px"
	 width="612px" height="792px" viewBox="0 0 612 792" enable-background="new 0 0 612 792" xml:space="preserve">
<g>
	<text transform="matrix(1 0 0 1 555.3652 556.1631)" fill="#FFFFFF" font-family="'ArialMT'" font-size="3.8937">01</text>
	<text transform="matrix(1 0 0 1 555.3652 538.6055)" fill="#FFFFFF" font-family="'ArialMT'" font-size="3.8937">02</text>
	<text transform="matrix(1 0 0 1 381.8594 397.7725)" fill="#FFFFFF" font-family="'ArialMT'" font-size="3.8937">12</text>
	<text transform="matrix(1 0 0 1 381.8594 381.7725)" fill="#FFFFFF" font-family="'ArialMT'" font-size="3.8937">13</text>
	<text transform="matrix(1 0 0 1 381.8594 365.7715)" fill="#FFFFFF" font-family="'ArialMT'" font-size="3.8937">14</text>
	<text transform="matrix(1 0 0 1 381.8594 349.7705)" fill="#FFFFFF" font-family="'ArialMT'" font-size="3.8937">15</text>
	<text transform="matrix(1 0 0 1 381.8594 333.77)" fill="#FFFFFF" font-family="'ArialMT'" font-size="3.8937">16</text>
	<text transform="matrix(1 0 0 1 381.8594 317.7695)" fill="#FFFFFF" font-family="'ArialMT'" font-size="3.8937">17</text>
	<text transform="matrix(1 0 0 1 381.8594 301.7695)" fill="#FFFFFF" font-family="'ArialMT'" font-size="3.8937">18</text>
	<text transform="matrix(1 0 0 1 378.3701 283.6396)" fill="#FFFFFF" font-family="'ArialMT'" font-size="3.8937">19</text>
	<text transform="matrix(1 0 0 1 378.3701 267.334)" fill="#FFFFFF" font-family="'ArialMT'" font-size="3.8937">20</text>
	<text transform="matrix(1 0 0 1 378.3701 246.1621)" fill="#FFFFFF" font-family="'ArialMT'" font-size="3.8937">21</text>
	<text transform="matrix(1 0 0 1 555.3652 522.8359)" fill="#FFFFFF" font-family="'ArialMT'" font-size="3.8937">03</text>
	<text transform="matrix(1 0 0 1 555.3652 509.2588)" fill="#FFFFFF" font-family="'ArialMT'" font-size="3.8937">04</text>
	<text transform="matrix(1 0 0 1 555.3652 499.46)" fill="#FFFFFF" font-family="'ArialMT'" font-size="3.8937">05</text>
	<text transform="matrix(1 0 0 1 555.3652 489.6602)" fill="#FFFFFF" font-family="'ArialMT'" font-size="3.8937">06</text>
	<text transform="matrix(1 0 0 1 555.3652 479.8613)" fill="#FFFFFF" font-family="'ArialMT'" font-size="3.8937">07</text>
	<text transform="matrix(1 0 0 1 555.3652 470.0615)" fill="#FFFFFF" font-family="'ArialMT'" font-size="3.8937">08</text>
	<text transform="matrix(1 0 0 1 555.3652 460.2617)" fill="#FFFFFF" font-family="'ArialMT'" font-size="3.8937">09</text>
	<text transform="matrix(1 0 0 1 555.3652 450.4629)" fill="#FFFFFF" font-family="'ArialMT'" font-size="3.8937">10</text>
	<text transform="matrix(1 0 0 1 555.3652 440.6631)" fill="#FFFFFF" font-family="'ArialMT'" font-size="3.8937">11</text>
</g>
<g>
	<g>
		<g>
			<g>
				<polygon id="SVGID_1_" fill="#484743" points="222.771,155.553 222.771,170.654 151.005,266.661 151.005,255.904 				"/>
			</g>
			<g>
				<polygon id="SVGID_2_" fill="none" stroke="#6D7779" stroke-width="0.1" points="222.771,155.553 222.771,170.654 
					151.005,266.661 151.005,255.904 				"/>
			</g>
		</g>
	</g>
	<g>
		<g>
			<g>
				<polygon id="SVGID_3_" fill="#615E59" points="291.657,188.128 222.771,155.553 222.771,177.825 291.657,208.784 				"/>
			</g>
			<g>
				<polygon id="SVGID_4_" fill="none" stroke="#6D7779" stroke-width="0.1" points="291.657,188.128 222.771,155.553 
					222.771,177.825 291.657,208.784 				"/>
			</g>
		</g>
	</g>
</g>
<polygon fill="#615E59" stroke="#6D7779" stroke-width="0.1" points="401.754,545.944 394.481,546.449 394.481,545.288 "/>
<g>
	<polygon fill="#484743" stroke="#6D7779" stroke-width="0.1" points="182.974,526.602 128.935,521.299 128.935,549.328 
		182.974,564.328 	"/>
	<g>
		<polygon fill="#484743" points="77.119,534.935 77.119,516.147 128.935,521.299 128.935,549.277 		"/>
		<path fill="#6D7779" d="M77.169,516.248l51.716,5.102v27.928l-51.716-14.393V516.248 M77.119,516.147v18.787l51.816,14.394
			v-28.029L77.119,516.147L77.119,516.147z"/>
	</g>
</g>
<polygon fill="#615E59" stroke="#6D7779" stroke-width="0.1" points="335.443,522.612 182.974,526.602 182.974,564.328 
	182.974,564.328 335.443,552.914 335.443,551.904 335.443,538.621 "/>
<polygon fill="#615E59" stroke="#6D7779" stroke-width="0.1" points="335.443,538.621 335.443,551.904 394.481,547.561 
	394.481,545.288 394.481,535.49 "/>
<g>
	<polygon fill="#484743" points="394.481,545.237 394.532,535.49 354.332,532.662 354.332,518.521 413.824,520.541 413.774,547.056 
			"/>
	<g>
		<path fill="#6D7779" d="M354.382,518.571l59.393,1.97v26.464l-19.191-1.768v-9.696v-0.051h-0.051l-40.15-2.828V518.571
			 M354.332,518.521v14.141l40.149,2.828v9.747l19.293,1.818v-26.564L354.332,518.521L354.332,518.521z"/>
	</g>
</g>
<polygon fill="#615E59" stroke="#6D7779" stroke-width="0.1" points="354.332,532.713 354.332,518.521 280.546,520.036 
	335.443,522.612 335.443,533.521 "/>
<polygon fill="#615E59" stroke="#6D7779" stroke-width="0.1" points="77.119,500.896 77.119,516.147 112.774,519.683 
	112.774,499.229 "/>
<g>
	<polygon fill="#484743" points="77.119,409.231 112.774,376.405 112.724,396.858 77.119,424.484 	"/>
	<path fill="#6D7779" d="M112.724,376.506v20.353l-35.555,27.626v-15.151L112.724,376.506 M112.774,376.354l-35.655,32.877v15.253
		l35.655-27.677V376.354L112.774,376.354z"/>
</g>
<polygon fill="#615E59" stroke="#6D7779" stroke-width="0.1" points="193.781,372.516 193.781,393.576 212.266,396.253 
	212.266,375.698 "/>
<polygon fill="#615E59" stroke="#6D7779" stroke-width="0.1" points="158.429,383.324 112.774,376.354 112.774,396.858 
	158.429,402.717 172.418,404.484 172.418,404.384 172.418,385.445 "/>
<g>
	<polygon fill="#484743" points="172.418,385.445 172.317,385.395 193.832,372.516 193.781,393.576 172.418,404.333 	"/>
	<path fill="#6D7779" d="M193.731,372.566v20.959l-21.313,10.808v-18.838v-0.101l0,0L193.731,372.566 M193.781,372.516
		l-21.514,12.929h0.101v18.939l21.413-10.858V372.516L193.781,372.516L193.781,372.516z"/>
</g>
<polygon fill="#615E59" stroke="#6D7779" stroke-width="0.1" points="226.609,367.92 226.609,367.92 226.609,389.687 
	269.839,396.505 269.839,376 "/>
<g>
	<polygon fill="#484743" points="212.316,375.698 226.659,367.971 226.609,389.687 212.316,396.202 	"/>
	<path fill="#6D7779" d="M226.558,368.021v21.666l-14.242,6.515v-20.454L226.558,368.021 M226.609,367.92l-14.343,7.778v20.555
		l14.343-6.566V367.92L226.609,367.92z"/>
</g>
<g>
	<polygon fill="#484743" points="77.119,424.534 112.774,396.858 112.724,417.313 77.119,439.736 	"/>
	<path fill="#6D7779" d="M112.724,396.96v20.353l-35.555,22.424v-15.151L112.724,396.96 M112.774,396.858l-35.655,27.676v15.252
		l35.655-22.474V396.858L112.774,396.858z"/>
</g>
<polygon fill="#615E59" stroke="#6D7779" stroke-width="0.1" points="112.774,396.858 112.774,417.313 172.418,423.524 
	172.418,423.423 172.418,404.484 "/>
<polygon fill="#615E59" stroke="#6D7779" stroke-width="0.1" points="193.781,393.576 193.781,414.636 193.781,414.636 
	212.266,416.808 212.266,416.808 212.266,396.253 "/>
<g>
	<polygon fill="#484743" points="172.418,404.384 193.832,393.576 193.781,414.636 172.418,423.373 	"/>
	<path fill="#6D7779" d="M193.731,393.626v20.958l-21.313,8.737v-18.889v-0.05L193.731,393.626 M193.781,393.576l-21.413,10.858
		v0.102v18.938l21.413-8.787V393.576L193.781,393.576z"/>
</g>
<g>
	<polygon fill="#484743" points="269.839,396.556 280.344,392.717 280.344,413.929 269.839,417.01 	"/>
	<path fill="#6D7779" d="M280.294,392.768v21.11l-10.404,3.081v-20.403L280.294,392.768 M280.344,392.717l-10.505,3.838v20.454v0.05
		l10.505-3.131V392.717L280.344,392.717z"/>
</g>
<polygon fill="#615E59" stroke="#6D7779" stroke-width="0.1" points="269.839,396.505 226.609,389.687 226.609,389.687 
	226.609,411.505 226.609,411.505 269.839,417.01 269.839,396.556 "/>
<g>
	<polygon fill="#484743" points="212.316,396.253 226.659,389.737 226.609,411.505 212.316,416.757 	"/>
	<path fill="#6D7779" d="M226.558,389.788v21.666l-14.242,5.303v-20.454L226.558,389.788 M226.609,389.687l-14.343,6.566v20.555
		l14.343-5.303V389.687L226.609,389.687z"/>
</g>
<g>
	<polygon fill="#615E59" stroke="#6D7779" stroke-width="0.1" points="193.781,498.875 193.781,519.936 193.781,519.936 
		212.266,519.582 212.266,499.027 	"/>
	<g>
		<polygon fill="#484743" points="77.119,516.147 77.119,500.896 112.774,499.229 112.724,519.683 		"/>
		<path fill="#6D7779" d="M112.724,499.279v20.353l-35.555-3.535v-15.201L112.724,499.279 M112.774,499.229l-35.655,1.667v15.252
			l35.655,3.535V499.229L112.774,499.229z"/>
	</g>
	<polygon fill="#615E59" stroke="#6D7779" stroke-width="0.1" points="112.774,499.229 112.774,519.683 172.418,518.571 
		172.418,499.684 	"/>
	<g>
		<polygon fill="#484743" points="172.418,518.521 172.418,499.532 193.781,498.875 193.781,519.885 		"/>
		<path fill="#6D7779" d="M193.731,498.926v20.959l-21.313-1.363v-18.838v-0.102L193.731,498.926 M193.781,498.875l-21.413,0.657
			v0.151v18.888l21.413,1.364V498.875L193.781,498.875z"/>
	</g>
	<g>
		<polygon fill="#615E59" points="373.624,500.491 377.412,500.542 377.361,516.552 373.624,516.602 		"/>
		<path fill="#6D7779" d="M373.624,500.542l3.687,0.051v15.959l-3.687,0.05V500.542 M373.573,500.491v16.161l3.788-0.05v-16.061
			L373.573,500.491L373.573,500.491z"/>
	</g>
	<g>
		<polygon fill="#484743" points="269.839,519.531 269.839,499.077 280.344,498.875 280.344,520.036 		"/>
		<path fill="#6D7779" d="M280.294,498.875v21.11l-10.404-0.505v-20.403L280.294,498.875 M280.344,498.825l-10.505,0.202v20.504
			l10.505,0.505V498.825L280.344,498.825z"/>
	</g>
	<polygon fill="#615E59" stroke="#6D7779" stroke-width="0.1" points="354.332,499.582 280.344,498.825 280.344,520.036 
		354.332,518.521 354.332,517.864 354.332,499.886 	"/>
	<polygon fill="#615E59" stroke="#6D7779" stroke-width="0.1" points="373.573,500.037 354.332,499.886 354.332,517.864 
		373.573,517.511 373.573,516.652 373.573,500.491 	"/>
	<polygon fill="#615E59" stroke="#6D7779" stroke-width="0.1" points="226.609,520.39 269.839,519.582 269.839,499.077 
		226.609,498.623 	"/>
	<g>
		<polygon fill="#484743" points="212.266,519.582 212.316,499.027 226.609,498.674 226.609,520.39 		"/>
		<path fill="#6D7779" d="M226.558,498.674v21.665l-14.242-0.808v-20.454L226.558,498.674 M226.609,498.623l-14.343,0.404v20.555
			l14.343,0.808V498.623L226.609,498.623z"/>
	</g>
</g>
<g>
	<g>
		<polygon fill="#484743" points="138.278,283.681 226.659,165.502 226.609,193.633 199.337,227.066 193.832,225.046 
			138.278,295.347 		"/>
		<path fill="#6D7779" d="M226.558,165.654v27.979l-27.221,33.383l-5.505-2.02h-0.051v0.05l-55.453,70.2v-11.565L226.558,165.654
			 M226.609,165.502l-88.331,118.178v11.767l55.554-70.351l5.555,2.02l27.272-33.433v-28.181H226.609z"/>
	</g>
	<polygon fill="#615E59" stroke="#6D7779" stroke-width="0.1" points="226.609,193.633 269.839,211.966 269.839,185.451 
		226.609,165.502 	"/>
	<polygon fill="#615E59" stroke="#6D7779" stroke-width="0.1" points="348.271,221.662 348.271,245.197 373.573,255.904 
		373.573,233.379 	"/>
	<g>
		<polygon fill="#484743" points="288.526,226.258 288.576,203.431 295.142,197.118 295.091,222.672 290.192,226.965 		"/>
		<path fill="#6D7779" d="M295.041,197.219v25.403l-4.848,4.292l-1.616-0.656v-22.777L295.041,197.219 M295.091,197.118
			l-6.565,6.313v22.828l1.667,0.707l4.899-4.293V197.118L295.091,197.118z"/>
	</g>
	<g>
		<polygon fill="#484743" points="342.11,248.378 342.11,226.309 348.271,221.713 348.221,245.096 343.019,248.732 		"/>
		<g>
			<path fill="#6D7779" d="M348.221,221.763v23.333l-5.202,3.636l-0.858-0.354v-22.019L348.221,221.763 M348.271,221.662
				l-6.162,4.646v22.07l0.909,0.354l5.253-3.636V221.662L348.271,221.662z"/>
		</g>
	</g>
	<polygon fill="#615E59" stroke="#6D7779" stroke-width="0.1" points="280.344,222.875 288.526,226.258 288.526,203.431 
		269.839,195.098 269.839,220.804 278.678,224.44 	"/>
	<polygon fill="#615E59" stroke="#6D7779" stroke-width="0.1" points="295.091,222.672 342.11,242.571 342.11,218.834 
		295.091,197.118 	"/>
</g>
<polygon fill="#615E59" stroke="#6D7779" stroke-width="0.1" points="342.11,218.834 342.11,204.239 295.091,181.461 
	295.091,197.118 "/>
<g>
	<polygon fill="#484743" points="277.718,198.582 295.142,181.461 295.091,197.118 288.526,203.431 	"/>
	<path fill="#6D7779" d="M295.041,181.563v15.505l-6.565,6.262l-10.707-4.798L295.041,181.563 M295.091,181.461l-17.373,17.171
		l10.808,4.848l6.565-6.313V181.461L295.091,181.461z"/>
</g>
<g>
	<polygon fill="#484743" points="199.387,227.066 226.659,193.684 226.609,215.45 212.266,231.763 	"/>
	<path fill="#6D7779" d="M226.558,193.785V215.4l-14.292,16.313l-12.828-4.697L226.558,193.785 M226.609,193.633l-27.272,33.434
		l12.929,4.697l0,0l14.343-16.363V193.633L226.609,193.633z"/>
</g>
<polygon fill="#615E59" stroke="#6D7779" stroke-width="0.1" points="226.609,215.45 269.839,232.47 269.839,211.966 
	226.609,193.633 "/>
<polygon fill="#615E59" stroke="#6D7779" stroke-width="0.1" points="348.271,245.197 348.271,251.005 354.332,253.53 
	354.332,265.752 373.573,273.327 373.573,255.904 "/>
<g>
	<polygon fill="#484743" points="290.243,226.965 295.142,222.672 295.091,228.985 	"/>
	<path fill="#6D7779" d="M295.041,222.773v6.161l-4.747-1.969L295.041,222.773 M295.091,222.672l-4.899,4.293l4.899,2.02V222.672
		L295.091,222.672z"/>
</g>
<g>
	<polygon fill="#484743" points="343.019,248.833 348.271,245.197 348.221,251.005 	"/>
	<g>
		<path fill="#6D7779" d="M348.221,245.298v5.656l-5.101-2.121L348.221,245.298 M348.271,245.197l-5.253,3.636l5.253,2.172V245.197
			L348.271,245.197z"/>
	</g>
</g>
<polygon fill="#615E59" stroke="#6D7779" stroke-width="0.1" points="278.678,224.44 269.839,220.804 269.839,232.571 "/>
<polygon fill="#615E59" stroke="#6D7779" stroke-width="0.1" points="295.091,228.985 342.11,248.479 342.11,242.571 
	295.091,222.672 "/>
<polygon fill="#615E59" stroke="#6D7779" stroke-width="0.1" points="193.781,225.046 193.781,246.106 212.266,252.368 
	212.266,231.813 "/>
<g>
	<polygon fill="#615E59" points="373.573,306.761 373.624,290.65 377.412,292.064 377.361,308.023 	"/>
	<path fill="#6D7779" d="M373.624,290.7l3.687,1.364v15.909l-3.687-1.263V290.7 M373.573,290.65v16.161l3.788,1.263v-16.06
		L373.573,290.65L373.573,290.65z"/>
</g>
<g>
	<polygon fill="#484743" points="130.198,305.649 193.832,225.097 193.781,246.106 130.198,320.599 	"/>
	<path fill="#6D7779" d="M193.731,225.198v20.908l-63.483,74.442V305.7L193.731,225.198 M193.781,225.046l-63.583,80.604v15
		l63.583-74.543V225.046L193.781,225.046z"/>
</g>
<g>
	<polygon fill="#484743" points="269.89,232.521 280.344,222.925 280.294,243.985 269.89,252.823 	"/>
	<path fill="#6D7779" d="M280.294,223.026v20.959l-10.354,8.788v-20.252L280.294,223.026 M280.344,222.875l-10.454,9.596v20.353
		l10.454-8.888V222.875L280.344,222.875z"/>
</g>
<polygon fill="#615E59" stroke="#6D7779" stroke-width="0.1" points="280.344,222.875 280.344,244.136 354.332,272.469 
	354.332,253.53 "/>
<polygon fill="#615E59" stroke="#6D7779" stroke-width="0.1" points="226.609,237.217 269.839,252.975 269.839,232.47 
	226.609,215.45 "/>
<polygon fill="#615E59" stroke="#6D7779" stroke-width="0.1" points="354.332,265.752 354.332,283.781 373.573,290.801 
	373.573,273.327 "/>
<g>
	<polygon fill="#484743" points="212.316,231.813 226.659,215.45 226.609,237.217 212.316,252.268 	"/>
	<path fill="#6D7779" d="M226.558,215.551v21.616l-14.242,15.05v-20.403L226.558,215.551 M226.609,215.45l-14.343,16.363v20.555
		l14.343-15.151V215.45L226.609,215.45z"/>
</g>
<polygon fill="#615E59" stroke="#6D7779" stroke-width="0.1" points="193.781,246.106 193.781,267.166 212.266,272.923 
	212.266,252.368 "/>
<g>
	<polygon fill="#615E59" points="373.573,322.871 373.624,306.761 377.412,308.074 377.361,324.083 	"/>
	<path fill="#6D7779" d="M373.624,306.861l3.687,1.263v15.959l-3.687-1.162V306.861 M373.573,306.761v16.161l3.788,1.162v-16.06
		L373.573,306.761L373.573,306.761z"/>
</g>
<g>
	<polygon fill="#484743" points="130.198,320.649 193.832,246.156 193.781,267.166 130.198,335.598 	"/>
	<path fill="#6D7779" d="M193.731,246.257v20.909l-63.483,68.381v-14.848L193.731,246.257 M193.781,246.106l-63.583,74.543v15
		l63.583-68.482V246.106L193.781,246.106z"/>
</g>
<g>
	<polygon fill="#484743" points="269.89,252.874 280.344,244.035 280.294,265.095 269.89,273.176 	"/>
	<path fill="#6D7779" d="M280.294,244.086v20.959l-10.354,8.08v-20.251L280.294,244.086 M280.344,243.985l-10.454,8.889v20.403
		l10.454-8.182V243.985L280.344,243.985z"/>
</g>
<polygon fill="#615E59" stroke="#6D7779" stroke-width="0.1" points="280.344,244.136 280.344,265.348 354.332,291.407 
	354.332,272.469 "/>
<path fill="#615E59" stroke="#6D7779" stroke-width="0.1" d="M226.609,258.984l43.18,14.495v-20.504l-43.18-15.757V258.984z
	 M354.332,283.781v18.03l19.241,6.464v-17.423L354.332,283.781z"/>
<g>
	<polygon fill="#484743" points="212.316,252.368 226.659,237.217 226.609,258.984 212.316,272.873 	"/>
	<path fill="#6D7779" d="M226.558,237.369v21.615l-14.242,13.787v-20.403L226.558,237.369 M226.609,237.217l-14.343,15.151v20.555
		l14.343-13.889V237.217L226.609,237.217z"/>
</g>
<polygon fill="#615E59" stroke="#6D7779" stroke-width="0.1" points="377.412,501.3 377.412,515.39 550.588,512.612 
	550.588,502.663 "/>
<polygon fill="#615E59" stroke="#6D7779" stroke-width="0.1" points="377.412,473.068 377.412,487.209 550.588,492.765 
	550.588,482.815 "/>
<polygon fill="#615E59" stroke="#6D7779" stroke-width="0.1" points="517.407,459.482 488.367,456.452 488.367,467.866 
	517.407,470.189 550.588,472.866 550.588,462.917 "/>
<polygon fill="#615E59" stroke="#6D7779" stroke-width="0.1" points="464.429,453.928 434.936,450.847 434.936,463.573 
	464.429,465.947 488.367,467.866 488.367,456.452 "/>
<polygon fill="#615E59" stroke="#6D7779" stroke-width="0.1" points="394.481,405.596 394.481,419.282 550.588,443.019 
	550.588,433.12 "/>
<g>
	<polygon fill="#484743" points="377.412,416.656 377.412,409.636 394.481,405.596 394.481,419.231 	"/>
	<g>
		<path fill="#6D7779" d="M394.432,405.646v13.585l-17.02-2.575v-6.97L394.432,405.646 M394.481,405.596l-17.12,4.04v7.021
			l17.12,2.626V405.596L394.481,405.596z"/>
	</g>
</g>
<g>
	<polygon fill="#484743" points="269.89,273.277 280.344,265.095 280.294,286.206 269.89,293.579 	"/>
	<g>
		<path fill="#6D7779" d="M280.294,265.196v20.959l-10.354,7.374v-20.252L280.294,265.196 M280.344,265.095l-10.505,8.182v20.403
			l10.455-7.424v-21.161H280.344z"/>
	</g>
</g>
<g>
	<polygon fill="#615E59" stroke="#6D7779" stroke-width="0.1" points="193.781,267.166 193.781,288.226 212.266,293.478 
		212.266,272.923 	"/>
	<g>
		<polygon fill="#615E59" points="373.573,339.032 373.624,322.921 377.412,324.134 377.361,340.093 		"/>
		<g>
			<path fill="#6D7779" d="M373.624,322.972l3.687,1.162v15.908l-3.687-1.061V322.972 M373.573,322.921v16.161l3.788,1.061v-16.06
				L373.573,322.921L373.573,322.921z"/>
		</g>
	</g>
	<g>
		<polygon fill="#484743" points="130.198,335.699 193.832,267.216 193.781,288.226 130.198,350.648 		"/>
		<g>
			<path fill="#6D7779" d="M193.731,267.317v20.908l-63.483,62.372v-14.898L193.731,267.317 M193.781,267.166l-63.583,68.533v14.999
				l63.583-62.422V267.166L193.781,267.166z"/>
		</g>
	</g>
	<polygon fill="#615E59" stroke="#6D7779" stroke-width="0.1" points="280.344,265.348 280.344,286.559 354.332,310.296 
		354.332,291.407 	"/>
	<path fill="#615E59" stroke="#6D7779" stroke-width="0.1" d="M226.609,280.802l43.18,13.182v-20.505l-43.18-14.444V280.802z
		 M354.332,301.761v18.03l19.241,5.858v-17.424L354.332,301.761z"/>
	<g>
		<polygon fill="#484743" points="212.316,272.923 226.659,259.035 226.609,280.802 212.316,293.428 		"/>
		<g>
			<path fill="#6D7779" d="M226.558,259.136v21.616l-14.242,12.575v-20.403L226.558,259.136 M226.609,258.984l-14.343,13.888v20.605
				l14.343-12.676V258.984L226.609,258.984z"/>
		</g>
	</g>
</g>
<polygon fill="#615E59" stroke="#6D7779" stroke-width="0.1" points="193.781,288.226 193.781,309.286 212.266,314.033 
	212.266,293.478 "/>
<g>
	<polygon fill="#615E59" points="373.573,355.193 373.624,339.083 377.412,340.143 377.361,356.153 	"/>
	<path fill="#6D7779" d="M373.624,339.133l3.687,1.061v15.909l-3.687-0.96V339.133 M373.573,339.083v16.161l3.788,0.959v-16.06
		L373.573,339.083L373.573,339.083z"/>
</g>
<g>
	<polygon fill="#484743" points="130.198,350.698 193.832,288.276 193.781,309.286 130.198,365.647 	"/>
	<path fill="#6D7779" d="M193.731,288.377v20.908l-63.483,56.311v-14.898L193.731,288.377 M193.781,288.226l-63.583,62.473v15
		l63.583-56.412V288.226L193.781,288.226z"/>
</g>
<g>
	<polygon fill="#484743" points="269.89,293.63 280.344,286.206 280.294,307.266 269.89,313.982 	"/>
	<path fill="#6D7779" d="M280.294,286.307v20.959l-10.354,6.667V293.68L280.294,286.307 M280.344,286.206l-10.454,7.424v20.353
		l10.454-6.717V286.206L280.344,286.206z"/>
</g>
<polygon fill="#615E59" stroke="#6D7779" stroke-width="0.1" points="280.344,286.559 280.344,307.821 354.332,329.234 
	354.332,310.296 "/>
<path fill="#615E59" stroke="#6D7779" stroke-width="0.1" d="M226.609,302.569l43.18,11.918v-20.504l-43.18-13.182V302.569z
	 M354.332,319.791v18.03l19.241,5.303v-17.424L354.332,319.791z"/>
<polygon fill="#484743" stroke="#6D7779" stroke-width="0.1" points="212.266,293.478 212.266,314.033 226.609,302.569 
	226.609,280.802 "/>
<polygon fill="#615E59" stroke="#6D7779" stroke-width="0.1" points="193.781,309.286 193.781,330.396 212.266,334.588 
	212.266,314.033 "/>
<g>
	<polygon fill="#615E59" points="373.573,371.304 373.624,355.193 377.412,356.203 377.361,372.163 	"/>
	<g>
		<path fill="#6D7779" d="M373.624,355.244l3.687,0.959v15.959l-3.687-0.859V355.244 M373.573,355.193v16.161l3.788,0.858v-16.06
			L373.573,355.193L373.573,355.193z"/>
	</g>
</g>
<g>
	<polygon fill="#484743" points="130.198,378.98 130.198,365.698 193.832,309.336 193.781,330.396 132.016,379.283 	"/>
	<g>
		<path fill="#6D7779" d="M193.731,309.437v20.909l-61.766,48.887l-1.717-0.252v-13.232L193.731,309.437 M193.781,309.286
			l-63.583,56.412v13.333l1.818,0.252l61.816-48.938v-21.06H193.781z"/>
	</g>
</g>
<g>
	<polygon fill="#484743" points="269.839,314.538 280.395,307.821 280.344,329.033 269.839,334.992 	"/>
	<g>
		<path fill="#6D7779" d="M280.294,307.872v21.11l-10.404,5.959v-20.403L280.294,307.872 M280.344,307.821l-10.505,6.767v20.504
			l10.505-6.01V307.821L280.344,307.821z"/>
	</g>
</g>
<polygon fill="#615E59" stroke="#6D7779" stroke-width="0.1" points="280.344,307.821 280.344,329.033 354.332,348.173 
	354.332,329.234 "/>
<path fill="#615E59" stroke="#6D7779" stroke-width="0.1" d="M354.332,337.77v18.03l19.241,4.748v-17.424L354.332,337.77z
	 M226.609,324.336l43.18,10.656v-20.504l-43.18-11.918V324.336z"/>
<g>
	<polygon fill="#484743" points="212.316,314.033 226.659,302.569 226.609,324.336 212.316,334.537 	"/>
	<g>
		<path fill="#6D7779" d="M226.558,302.67v21.666l-14.242,10.151v-20.454L226.558,302.67 M226.609,302.569l-14.343,11.464v20.555
			l14.343-10.202V302.569L226.609,302.569z"/>
	</g>
</g>
<polygon fill="#615E59" stroke="#6D7779" stroke-width="0.1" points="212.266,355.143 193.781,351.456 193.781,330.396 
	212.266,334.588 "/>
<g>
	<polygon fill="#615E59" points="373.573,387.465 373.624,371.354 377.412,372.213 377.361,388.223 	"/>
	<path fill="#6D7779" d="M373.624,371.405l3.687,0.858v15.959l-3.687-0.758V371.405 M373.573,371.354v16.161l3.788,0.757v-16.06
		L373.573,371.354L373.573,371.354z"/>
</g>
<g>
	<polygon fill="#484743" points="132.016,379.283 193.832,330.396 193.781,351.456 149.894,382.011 	"/>
	<path fill="#6D7779" d="M193.731,330.497v20.959l-43.887,30.555l-17.777-2.728L193.731,330.497 M193.781,330.396l-61.816,48.938
		l17.878,2.727l43.887-30.605v-21.06H193.781z"/>
</g>
<g>
	<polygon fill="#484743" points="269.839,335.042 280.344,329.033 280.344,350.244 269.839,355.496 	"/>
	<path fill="#6D7779" d="M280.294,329.133v21.111l-10.404,5.252v-20.403L280.294,329.133 M280.344,329.033l-10.505,6.01v20.504
		l10.505-5.303V329.033L280.344,329.033z"/>
</g>
<polygon fill="#615E59" stroke="#6D7779" stroke-width="0.1" points="354.332,367.112 280.344,350.244 280.344,329.033 
	354.332,348.173 "/>
<path fill="#615E59" stroke="#6D7779" stroke-width="0.1" d="M226.609,346.153l43.18,9.343v-20.504l-43.18-10.656V346.153z
	 M354.332,355.799v18.03l19.241,4.192v-17.424L354.332,355.799z"/>
<g>
	<polygon fill="#484743" points="212.316,334.588 226.659,324.386 226.609,346.153 212.316,355.092 	"/>
	<path fill="#6D7779" d="M226.558,324.437v21.666l-14.242,8.939v-20.454L226.558,324.437 M226.609,324.336l-14.343,10.202v20.555
		l14.343-8.99V324.336L226.609,324.336z"/>
</g>
<g>
	<polygon fill="#484743" points="269.839,376.051 280.344,371.506 280.344,392.717 269.839,396.505 	"/>
	<path fill="#6D7779" d="M280.294,371.556v21.111l-10.404,3.838v-20.403L280.294,371.556 M280.344,371.455l-10.505,4.596v20.504
		l10.505-3.838V371.455L280.344,371.455z"/>
</g>
<g>
	<polygon fill="#615E59" points="373.573,419.736 373.624,403.626 377.412,404.333 377.361,420.292 	"/>
	<path fill="#6D7779" d="M373.624,403.677l3.687,0.656v15.959l-3.687-0.556V403.677 M373.573,403.626v16.161l3.788,0.556v-16.061
		L373.573,403.626L373.573,403.626z"/>
</g>
<polygon fill="#615E59" stroke="#6D7779" stroke-width="0.1" points="287.516,372.87 280.344,371.455 280.344,392.717 
	287.516,393.879 354.332,404.939 354.332,386 "/>
<polygon fill="#615E59" stroke="#6D7779" stroke-width="0.1" points="354.332,391.808 354.332,409.838 373.573,412.868 
	373.573,395.444 "/>
<polygon fill="#615E59" stroke="#6D7779" stroke-width="0.1" points="193.781,414.636 193.781,435.695 212.266,437.362 
	212.266,416.808 "/>
<g>
	<polygon fill="#484743" points="77.119,439.786 112.774,417.363 112.724,437.816 77.119,455.038 	"/>
	<path fill="#6D7779" d="M112.724,417.413v20.354l-35.555,17.222v-15.151L112.724,417.413 M112.774,417.313l-35.655,22.474v15.303
		l35.655-17.272V417.313L112.774,417.313z"/>
</g>
<polygon fill="#615E59" stroke="#6D7779" stroke-width="0.1" points="112.774,417.313 112.774,437.767 172.418,442.564 
	172.418,442.463 172.418,423.524 "/>
<g>
	<polygon fill="#484743" points="172.418,423.423 193.832,414.636 193.781,435.695 172.418,442.412 	"/>
	<path fill="#6D7779" d="M193.731,414.687v20.959l-21.313,6.717v-18.838v-0.051L193.731,414.687 M193.781,414.636l-21.413,8.788
		v0.101v18.938l21.413-6.768V414.636L193.781,414.636L193.781,414.636z"/>
</g>
<g>
	<polygon fill="#615E59" points="373.573,452.059 373.624,447.716 373.624,435.897 377.412,436.402 377.361,452.361 	"/>
	<path fill="#6D7779" d="M373.624,435.999l3.687,0.454v15.959l-3.687-0.354v-4.293V435.999 M373.573,435.897v11.818v4.343
		l3.788,0.354v-16.06L373.573,435.897L373.573,435.897z"/>
</g>
<polygon fill="#615E59" stroke="#6D7779" stroke-width="0.1" points="377.412,430.797 377.412,444.888 550.588,462.917 
	550.588,452.968 "/>
<polygon fill="#615E59" stroke="#6D7779" stroke-width="0.1" points="373.573,430.292 354.332,427.817 354.332,442.816 
	354.332,445.847 373.573,447.716 373.573,435.897 "/>
<polygon fill="#615E59" stroke="#6D7779" stroke-width="0.1" points="354.332,423.878 300.646,416.656 300.646,437.262 
	354.332,442.816 354.332,427.817 "/>
<g>
	<polygon fill="#484743" points="269.839,417.06 280.344,413.929 280.344,435.14 269.839,437.514 	"/>
	<path fill="#6D7779" d="M280.294,413.979v21.11l-10.404,2.373V417.06L280.294,413.979 M280.344,413.929l-10.505,3.131v20.454v0.051
		l10.505-2.425V413.929L280.344,413.929L280.344,413.929z"/>
</g>
<polygon fill="#615E59" stroke="#6D7779" stroke-width="0.1" points="269.839,417.01 226.609,411.505 226.609,433.271 
	269.839,437.514 269.839,417.06 "/>
<g>
	<polygon fill="#484743" points="212.316,416.808 226.659,411.505 226.609,433.271 212.316,437.312 	"/>
	<path fill="#6D7779" d="M226.558,411.555v21.666l-14.242,4.041v-20.454L226.558,411.555 M226.609,411.505l-14.343,5.303v20.555
		l14.343-4.091V411.505L226.609,411.505L226.609,411.505z"/>
</g>
<polygon fill="#615E59" stroke="#6D7779" stroke-width="0.1" points="280.344,413.929 280.344,435.14 300.646,437.262 
	300.646,416.656 "/>
<polygon fill="#615E59" stroke="#6D7779" stroke-width="0.1" points="193.781,435.695 193.781,456.756 212.266,457.917 
	212.266,457.917 212.266,437.362 "/>
<g>
	<polygon fill="#484743" points="77.119,455.089 112.774,437.816 112.724,458.271 77.119,470.29 	"/>
	<path fill="#6D7779" d="M112.724,437.867v20.353L77.169,470.24v-15.151L112.724,437.867 M112.774,437.816l-35.655,17.272v15.303
		l35.655-12.07l0,0V437.816L112.774,437.816z"/>
</g>
<polygon fill="#615E59" stroke="#6D7779" stroke-width="0.1" points="112.774,437.816 112.774,458.271 172.418,461.604 
	172.418,461.503 172.418,442.564 "/>
<g>
	<polygon fill="#484743" points="172.418,442.463 193.832,435.695 193.781,456.756 172.418,461.452 	"/>
	<path fill="#6D7779" d="M193.731,435.746v20.959l-21.313,4.697v-18.838v-0.102L193.731,435.746 M193.781,435.695l-21.363,6.768
		v0.102v18.938l21.414-4.747v-21.061H193.781z"/>
</g>
<g>
	<g>
		<polygon fill="#615E59" points="373.573,468.169 373.624,465.189 373.624,452.059 377.412,452.412 377.361,468.422 		"/>
		<path fill="#6D7779" d="M373.624,452.109l3.687,0.354v15.959l-3.687-0.253v-2.979V452.109 M373.573,452.059v13.131v3.03
			l3.788,0.253v-16.061L373.573,452.059L373.573,452.059z"/>
	</g>
	<polygon fill="#615E59" stroke="#6D7779" stroke-width="0.1" points="377.412,458.978 377.412,473.068 550.588,482.815 
		550.588,472.866 	"/>
	<g>
		<polygon fill="#484743" points="269.839,437.564 280.344,435.19 280.344,456.402 269.839,458.019 		"/>
		<path fill="#6D7779" d="M280.294,435.241v21.11l-10.404,1.667v-20.403L280.294,435.241 M280.344,435.14l-10.505,2.425v20.504l0,0
			l10.505-1.666V435.14L280.344,435.14z"/>
	</g>
	<polygon fill="#615E59" stroke="#6D7779" stroke-width="0.1" points="354.332,442.816 280.344,435.14 280.344,456.402 
		354.332,461.705 354.332,445.847 	"/>
	<polygon fill="#615E59" stroke="#6D7779" stroke-width="0.1" points="373.573,447.716 354.332,445.847 354.332,461.705 
		354.332,463.877 373.573,465.189 373.573,452.059 	"/>
</g>
<polygon fill="#615E59" stroke="#6D7779" stroke-width="0.1" points="269.839,437.514 226.609,433.271 226.609,455.038 
	269.839,458.019 269.839,437.564 "/>
<g>
	<polygon fill="#484743" points="212.316,437.362 226.609,433.322 226.609,455.038 212.316,457.866 	"/>
	<path fill="#6D7779" d="M226.558,433.322v21.666l-14.242,2.828v-20.403L226.558,433.322 M226.609,433.271l-14.343,4.091v20.555
		l14.343-2.879l0,0V433.271L226.609,433.271z"/>
</g>
<polygon fill="#615E59" stroke="#6D7779" stroke-width="0.1" points="394.481,515.138 515.538,517.814 515.538,530.794 
	550.588,528.824 550.588,512.612 "/>
<polygon fill="#615E59" stroke="#6D7779" stroke-width="0.1" points="515.538,517.814 413.824,520.491 413.824,547.056 
	515.538,539.43 "/>
<polygon fill="#615E59" stroke="#6D7779" stroke-width="0.1" points="515.538,548.369 515.538,565.943 550.588,561.247 
	550.588,545.035 "/>
<g>
	<polygon fill="#615E59" points="373.573,484.33 373.624,482.613 373.624,468.22 377.412,468.473 377.361,473.068 377.361,484.481 	
		"/>
	<path fill="#6D7779" d="M373.624,468.271l3.687,0.252v4.596v11.363l-3.687-0.151v-1.666V468.271 M373.573,468.22v14.394v1.717
		l3.788,0.151v-11.413v-4.646L373.573,468.22L373.573,468.22z"/>
</g>
<g>
	<polygon fill="#484743" points="269.839,458.068 280.344,456.402 280.344,477.613 269.839,478.522 	"/>
	<path fill="#6D7779" d="M280.294,456.452v21.11l-10.404,0.96v-20.403L280.294,456.452 M280.344,456.402l-10.505,1.666v20.505l0,0
		l10.505-0.96V456.402L280.344,456.402z"/>
</g>
<polygon fill="#615E59" stroke="#6D7779" stroke-width="0.1" points="354.332,461.705 280.344,456.402 280.344,477.613 
	354.332,480.644 354.332,463.877 "/>
<polygon fill="#615E59" stroke="#6D7779" stroke-width="0.1" points="373.573,465.189 354.332,463.877 354.332,480.644 
	354.332,481.855 373.573,482.613 373.573,468.22 "/>
<g>
	<g>
		<polygon fill="#484743" points="77.119,470.341 112.774,458.271 112.724,478.725 77.119,485.593 		"/>
		<path fill="#6D7779" d="M112.724,458.321v20.353l-35.555,6.869v-15.151L112.724,458.321 M112.774,458.271l-35.655,12.07v15.252
			l35.655-6.868V458.271L112.774,458.271z"/>
	</g>
	<polygon fill="#615E59" stroke="#6D7779" stroke-width="0.1" points="112.774,458.271 112.774,458.271 112.774,478.725 
		112.774,478.725 172.418,480.644 172.418,480.492 172.418,461.604 	"/>
	<g>
		<polygon fill="#484743" points="172.418,461.503 193.832,456.756 193.781,477.815 172.418,480.492 		"/>
		<path fill="#6D7779" d="M193.731,456.806v20.959l-21.313,2.677v-18.838v-0.101L193.731,456.806 M193.781,456.756l-21.413,4.747
			v0.151v18.889l21.413-2.728V456.756L193.781,456.756z"/>
	</g>
	<polygon fill="#615E59" stroke="#6D7779" stroke-width="0.1" points="193.781,456.756 193.781,477.815 212.266,478.472 
		212.266,478.472 212.266,457.917 	"/>
	<polygon fill="#615E59" stroke="#6D7779" stroke-width="0.1" points="269.839,458.019 226.609,455.038 226.609,455.038 
		226.609,476.855 269.839,478.522 269.839,458.068 	"/>
	<g>
		<polygon fill="#484743" points="212.316,457.917 226.609,455.089 226.609,476.855 212.316,478.472 		"/>
		<path fill="#6D7779" d="M226.558,455.14v21.666l-14.242,1.616v-20.454L226.558,455.14 M226.609,455.038l-14.343,2.879l0,0v20.555
			l14.343-1.616l0,0V455.038L226.609,455.038z"/>
	</g>
</g>
<polygon fill="#615E59" stroke="#6D7779" stroke-width="0.1" points="112.774,478.725 77.119,485.644 77.119,500.896 
	112.774,499.229 "/>
<g>
	<polygon fill="#484743" points="77.119,485.644 112.774,478.775 112.724,499.229 77.119,500.845 	"/>
	<path fill="#6D7779" d="M112.724,478.825v20.354l-35.555,1.666v-15.201L112.724,478.825 M112.774,478.725l-35.655,6.868v15.252
		l35.655-1.666V478.725L112.774,478.725L112.774,478.725z"/>
</g>
<polygon fill="#615E59" stroke="#6D7779" stroke-width="0.1" points="112.774,478.725 112.774,499.229 172.418,499.684 
	172.418,499.532 172.418,480.644 "/>
<g>
	<polygon fill="#484743" points="172.418,480.492 193.832,477.815 193.781,498.875 172.418,499.532 	"/>
	<path fill="#6D7779" d="M193.731,477.866v20.959l-21.313,0.656v-18.838v-0.101L193.731,477.866 M193.781,477.815l-21.413,2.728
		v0.151v18.838l21.413-0.657V477.815L193.781,477.815z"/>
</g>
<polygon fill="#615E59" stroke="#6D7779" stroke-width="0.1" points="193.781,477.815 193.781,498.875 212.266,499.027 
	212.266,499.027 212.266,478.472 "/>
<g>
	<polygon fill="#615E59" points="373.573,500.441 373.624,500.037 373.624,484.33 377.412,484.532 377.361,500.491 	"/>
	<path fill="#6D7779" d="M373.624,484.381l3.687,0.151v15.959l-3.687-0.05v-0.404V484.381 M373.573,484.33v15.707v0.404l3.788,0.05
		v-16.06L373.573,484.33L373.573,484.33z"/>
</g>
<g>
	<polygon fill="#484743" points="269.839,478.573 280.344,477.613 280.344,498.825 269.839,499.027 	"/>
	<path fill="#6D7779" d="M280.294,477.664v21.11l-10.404,0.202v-20.403L280.294,477.664 M280.344,477.613l-10.505,0.96v20.504l0,0
		l10.505-0.202V477.613L280.344,477.613z"/>
</g>
<polygon fill="#615E59" stroke="#6D7779" stroke-width="0.1" points="354.332,480.644 280.344,477.613 280.344,498.825 
	354.332,499.582 354.332,481.855 "/>
<polygon fill="#615E59" stroke="#6D7779" stroke-width="0.1" points="269.839,478.522 226.609,476.855 226.609,476.855 
	226.609,498.623 226.609,498.623 269.839,499.077 269.839,478.573 "/>
<polygon fill="#615E59" stroke="#6D7779" stroke-width="0.1" points="373.573,482.613 354.332,481.855 354.332,499.582 
	354.332,499.886 373.573,500.037 373.573,484.33 "/>
<g>
	<polygon fill="#484743" points="212.316,478.472 226.609,476.855 226.609,498.623 212.316,499.027 	"/>
	<path fill="#6D7779" d="M226.558,476.906v21.666l-14.242,0.404v-20.454L226.558,476.906 M226.609,476.855l-14.343,1.616l0,0v20.556
		l14.343-0.404V476.855L226.609,476.855z"/>
</g>
<polygon fill="#615E59" stroke="#6D7779" stroke-width="0.1" points="377.412,487.209 377.412,501.3 444.732,501.855 
	444.732,489.33 "/>
<polygon fill="#615E59" stroke="#6D7779" stroke-width="0.1" points="550.588,492.765 444.732,489.33 444.732,501.855 
	550.588,502.663 "/>
<polygon fill="#615E59" stroke="#6D7779" stroke-width="0.1" points="182.974,602.003 182.974,639.729 241.002,629.78 
	241.002,594.882 "/>
<polygon fill="#615E59" stroke="#6D7779" stroke-width="0.1" points="335.443,581.65 335.443,583.216 335.443,611.347 
	394.481,601.447 394.481,598.872 394.481,574.529 "/>
<polygon fill="#615E59" stroke="#6D7779" stroke-width="0.1" points="277.365,590.388 277.365,623.518 335.443,613.568 
	335.443,611.347 335.443,583.216 "/>
<polygon fill="#615E59" stroke="#6D7779" stroke-width="0.1" points="241.002,594.882 241.002,629.78 277.365,623.518 
	277.365,590.388 "/>
<polygon fill="#615E59" stroke="#6D7779" stroke-width="0.1" points="413.824,573.671 413.824,600.235 438.723,595.943 
	438.723,570.59 "/>
<polygon fill="#615E59" stroke="#6D7779" stroke-width="0.1" points="491.903,563.975 475.338,566.045 455.035,568.57 
	438.723,570.59 438.723,595.943 455.035,593.114 475.338,589.579 491.903,586.751 515.538,582.66 515.538,561.045 "/>
<g>
	<polygon fill="#484743" points="401.754,597.66 401.805,571.803 413.824,573.671 413.774,600.186 	"/>
	<path fill="#6D7779" d="M401.805,571.853l11.97,1.818v26.464l-11.97-2.576V571.853 M401.754,571.803v25.857l12.07,2.575v-26.564
		L401.754,571.803L401.754,571.803z"/>
</g>
<polygon fill="#615E59" stroke="#6D7779" stroke-width="0.1" points="394.481,572.661 394.481,574.529 394.481,598.872 
	401.754,597.66 401.754,571.803 "/>
<g>
	<polygon fill="#615E59" stroke="#6D7779" stroke-width="0.1" points="515.538,530.794 515.538,548.369 550.588,545.035 
		550.588,528.824 	"/>
	<g>
		<polygon fill="#484743" points="401.754,571.803 401.805,545.944 413.824,547.106 413.774,573.62 		"/>
		<path fill="#6D7779" d="M401.805,545.995l11.97,1.111v26.464l-11.97-1.818V545.995 M401.754,545.944v25.858l12.07,1.868v-26.564
			L401.754,545.944L401.754,545.944z"/>
	</g>
	<polygon fill="#615E59" stroke="#6D7779" stroke-width="0.1" points="401.754,545.944 394.481,546.449 394.481,572.661 
		401.754,571.803 	"/>
	<polygon fill="#615E59" stroke="#6D7779" stroke-width="0.1" points="469.126,542.914 413.824,547.056 413.824,573.671 
		469.126,566.803 485.539,564.782 485.539,541.702 	"/>
	<polygon fill="#615E59" stroke="#6D7779" stroke-width="0.1" points="515.538,539.43 485.539,541.702 485.539,564.782 
		515.538,561.045 	"/>
</g>
<g>
	<polygon fill="#615E59" stroke="#6D7779" stroke-width="0.1" points="335.443,551.904 335.443,581.65 394.481,574.529 
		394.481,547.561 	"/>
	<g>
		<polygon fill="#484743" points="77.119,553.672 77.119,534.935 128.935,549.328 128.935,577.307 		"/>
		<path fill="#6D7779" d="M77.169,534.985l51.716,14.343v27.979l-51.716-23.635V534.985 M77.119,534.935v18.787l51.816,23.687
			v-28.029L77.119,534.935L77.119,534.935z"/>
	</g>
	<polygon fill="#484743" stroke="#6D7779" stroke-width="0.1" points="182.974,564.328 128.935,549.328 128.935,577.357 
		182.974,602.003 	"/>
	<polygon fill="#615E59" stroke="#6D7779" stroke-width="0.1" points="221.912,561.398 182.974,564.328 182.974,602.003 
		221.912,597.205 263.476,592.104 263.476,558.318 	"/>
	<polygon fill="#615E59" stroke="#6D7779" stroke-width="0.1" points="306,555.136 301.051,555.489 301.051,587.458 306,586.853 
		335.443,583.216 335.443,552.914 	"/>
	<polygon fill="#615E59" stroke="#6D7779" stroke-width="0.1" points="263.476,558.318 263.476,592.104 301.051,587.458 
		301.051,555.489 	"/>
</g>
<g>
	<polygon fill="#615E59" points="373.573,435.897 373.624,430.292 373.624,419.787 377.412,420.343 377.361,430.797 
		377.361,436.353 	"/>
	<g>
		<path fill="#6D7779" d="M373.624,419.838l3.687,0.556v10.403v5.556l-3.687-0.455v-5.556V419.838 M373.573,419.787v10.555v5.556
			l3.788,0.455v-5.606v-10.454L373.573,419.787L373.573,419.787z"/>
	</g>
</g>
<polygon fill="#615E59" stroke="#6D7779" stroke-width="0.1" points="377.412,416.656 377.412,430.797 550.588,452.968 
	550.588,443.019 "/>
<polygon fill="#615E59" stroke="#6D7779" stroke-width="0.1" points="354.332,404.939 280.344,392.717 280.344,413.929 
	354.332,423.878 354.332,409.838 "/>
<polygon fill="#615E59" stroke="#6D7779" stroke-width="0.1" points="373.573,412.868 354.332,409.838 354.332,423.878 
	354.332,427.817 373.573,430.292 373.573,419.787 "/>
<g>
	<polygon fill="#615E59" stroke="#6D7779" stroke-width="0.1" points="212.266,375.698 193.781,372.516 193.781,351.456 
		212.266,355.143 	"/>
	<g>
		<polygon fill="#484743" points="149.894,382.011 193.832,351.456 193.781,372.516 172.317,385.395 		"/>
		<path fill="#6D7779" d="M193.731,351.557v20.959l-21.464,12.878l-22.272-3.384L193.731,351.557 M193.781,351.456l-43.887,30.605
			l22.423,3.434l21.515-12.929v-21.11H193.781z"/>
	</g>
	<g>
		<polygon fill="#484743" points="212.316,355.143 226.659,346.153 226.609,367.92 212.316,375.647 		"/>
		<path fill="#6D7779" d="M226.558,346.254v21.666l-14.242,7.727v-20.454L226.558,346.254 M226.609,346.153l-14.343,8.989v20.555
			l14.343-7.778V346.153L226.609,346.153z"/>
	</g>
	<g>
		<polygon fill="#484743" points="269.839,355.547 280.344,350.294 280.344,371.455 269.839,376 		"/>
		<path fill="#6D7779" d="M280.294,350.345v21.11L269.89,376v-20.403L280.294,350.345 M280.344,350.244l-10.505,5.303v20.504
			l10.505-4.596V350.244L280.344,350.244z"/>
	</g>
	<polygon fill="#615E59" stroke="#6D7779" stroke-width="0.1" points="226.609,367.92 269.839,376 269.839,355.496 226.609,346.153 
			"/>
	<polygon fill="#615E59" stroke="#6D7779" stroke-width="0.1" points="291.96,352.92 280.344,350.244 280.344,371.455 
		291.96,373.778 320.494,379.384 320.494,359.385 	"/>
	<g>
		<polygon fill="#615E59" points="373.573,403.626 373.624,387.465 377.412,388.273 377.361,404.282 		"/>
		<path fill="#6D7779" d="M373.624,387.566l3.687,0.757v15.959l-3.687-0.656V387.566 M373.573,387.465v16.161l3.788,0.656v-16.06
			L373.573,387.465L373.573,387.465z"/>
	</g>
	<polygon fill="#615E59" stroke="#6D7779" stroke-width="0.1" points="354.332,373.829 354.332,391.808 373.573,395.444 
		373.573,377.97 	"/>
	<polygon fill="#615E59" stroke="#6D7779" stroke-width="0.1" points="354.332,367.112 320.494,359.385 320.494,379.384 
		354.332,386 	"/>
</g>
<polygon fill="#42413D" stroke="#6D7779" stroke-width="0.1" points="335.443,522.612 182.974,526.602 112.774,519.683 
	172.418,518.571 193.781,519.936 212.266,519.582 226.609,520.39 269.839,519.582 "/>
<polygon fill="#42413D" stroke="#6D7779" stroke-width="0.1" points="354.332,518.521 354.332,517.864 373.573,517.511 
	373.573,516.652 377.412,516.552 377.412,515.39 394.481,515.138 515.538,517.814 413.824,520.491 "/>
<polygon fill="#42413D" stroke="#6D7779" stroke-width="0.1" points="394.481,535.49 354.332,532.713 335.443,533.521 
	335.443,538.621 "/>
<polygon fill="#615E59" stroke="#6D7779" stroke-width="0.1" points="377.412,444.888 377.412,458.978 434.936,463.573 
	434.936,450.847 "/>
<g>
	<g>
		<polygon fill="#484743" points="77.119,572.459 77.119,553.722 128.935,577.408 128.935,605.337 		"/>
		<path fill="#6D7779" d="M77.169,553.772l51.716,23.636v27.929l-51.716-32.878V553.772 M77.119,553.722v18.788l51.816,32.928
			v-28.029L77.119,553.722L77.119,553.722z"/>
	</g>
	<polygon fill="#484743" stroke="#6D7779" stroke-width="0.1" points="182.974,602.003 128.935,577.357 128.935,605.387 
		182.974,639.729 	"/>
</g>
<rect x="393.167" y="281.594" fill="#615E59" stroke="#6D7779" stroke-width="0.1" width="11.692" height="4.091"/>
</svg>
